# File created by Blade
# Date/Time:  Tue Sep 30 19:31:19 2014
#---------------------------------------------------------
:version 1.10
:name HOM
:units
  mass 1.0
  length 1.000000
  angle deg
:documentation
     Acclaim Skeleton File
:root
   axis xyz
   order TX TY TZ RX RY RZ
   position 0.000000 0.000000 0.000000
   orientation 0 0 0
:bonedata
   begin
      id 1
      name Spine_dum
      direction 0.000000 1.000000 0.000000
      length 3.241213
      axis 0.0 0.0 0.0 xyz
   end
   begin
      id 2
      name LeftUpLeg_dum
      direction 1.000000 0.000000 0.000000
      length 3.434019
      axis 0.0 0.0 0.0 xyz
   end
   begin
      id 3
      name RightUpLeg_dum
      direction -1.000000 0.000000 0.000000
      length 3.434019
      axis 0.0 0.0 0.0 xyz
   end
   begin
      id 4
      name Spine
      direction 0.000000 1.000000 0.000000
      length 0.000000
      axis 0.0 0.0 0.0 xyz
      dof rx ry rz
   end
   begin
      id 5
      name Spine_dum1
      direction 0.000000 1.000000 0.000000
      length 18.382958
      axis 0.0 0.0 0.0 xyz
   end
   begin
      id 6
      name Spine_dum2
      direction 0.000000 1.000000 0.000000
      length 12.828261
      axis 0.0 0.0 0.0 xyz
   end
   begin
      id 7
      name Spine_dum3
      direction 0.000000 1.000000 0.000000
      length 12.828261
      axis 0.0 0.0 0.0 xyz
   end
   begin
      id 8
      name Head
      direction 0.000000 1.000000 0.000000
      length 4.527550
      axis 0.0 0.0 0.0 xyz
      dof rx ry rz
   end
   begin
      id 9
      name LeftShoulder
      direction 1.000000 0.000000 0.000000
      length 7.748055
      axis 0.0 0.0 -90.0 xyz
      dof rx ry rz
   end
   begin
      id 10
      name LeftArm
      direction 1.000000 0.000000 0.000000
      length 10.635614
      axis 0.0 0.0 -90.0 xyz
      dof rx ry rz
   end
   begin
      id 11
      name LeftForeArm
      direction 1.000000 0.000000 0.000000
      length 8.346755
      axis 0.0 0.0 -90.0 xyz
      dof ry rz rx
   end
   begin
      id 12
      name LeftHand
      direction 0.000000 0.000000 0.000000
      length 0.000000
      axis 0.0 0.0 -90.0 xyz
      dof rx ry rz
   end
   begin
      id 13
      name LeftHand_dum1
      direction 0.000000 0.000000 0.000000
      length 0.000000
      axis 0.0 0.0 -90.0 xyz
   end
   begin
      id 14
      name LeftHand_dum2
      direction 1.000000 0.000000 0.000000
      length 3.937000
      axis 0.0 0.0 -90.0 xyz
   end
   begin
      id 15
      name LeftHandThumb1
      direction 0.000000 0.000000 1.000000
      length 3.937000
      axis 0.0 0.0 -90.0 xyz
      dof rx rz ry
   end
   begin
      id 16
      name RightShoulder
      direction -1.000000 0.000000 0.000000
      length 7.748055
      axis 0.0 0.0 90.0 xyz
      dof rx ry rz
   end
   begin
      id 17
      name RightArm
      direction -1.000000 0.000000 0.000000
      length 10.635614
      axis 0.0 0.0 90.0 xyz
      dof rx ry rz
   end
   begin
      id 18
      name RightForeArm
      direction -1.000000 0.000000 0.000000
      length 8.346755
      axis 0.0 0.0 90.0 xyz
      dof ry rz rx
   end
   begin
      id 19
      name RightHand
      direction 0.000000 0.000000 0.000000
      length 0.000000
      axis 0.0 0.0 90.0 xyz
      dof rx ry rz
   end
   begin
      id 20
      name RightHand_dum1
      direction 0.000000 0.000000 0.000000
      length 0.000000
      axis 0.0 0.0 90.0 xyz
   end
   begin
      id 21
      name RightHand_dum2
      direction -1.000000 0.000000 0.000000
      length 3.937000
      axis 0.0 0.0 90.0 xyz
   end
   begin
      id 22
      name RightHandThumb1
      direction 0.000000 0.000000 1.000000
      length 3.937000
      axis 0.0 0.0 90.0 xyz
      dof rx rz ry
   end
   begin
      id 23
      name LeftUpLeg
      direction 0.000000 -1.000000 0.000000
      length 15.713025
      axis 0.0 0.0 0.0 xyz
      dof rx ry rz
   end
   begin
      id 24
      name LeftLeg
      direction 0.000000 -1.000000 0.000000
      length 14.435119
      axis 0.0 0.0 0.0 xyz
      dof rx ry rz
   end
   begin
      id 25
      name LeftFoot
      direction 0.000000 -0.258819 0.965926
      length 4.938895
      axis 15.0 0.0 0.0 xyz
      dof rx ry rz
   end
   begin
      id 26
      name LeftToeBase
      direction 0.000000 0.000000 1.000000
      length 2.952750
      axis 0.0 0.0 0.0 xyz
      dof rx ry rz
   end
   begin
      id 27
      name RightUpLeg
      direction 0.000000 -1.000000 0.000000
      length 15.713025
      axis 0.0 0.0 0.0 xyz
      dof rx ry rz
   end
   begin
      id 28
      name RightLeg
      direction 0.000000 -1.000000 0.000000
      length 14.435119
      axis 0.0 0.0 0.0 xyz
      dof rx ry rz
   end
   begin
      id 29
      name RightFoot
      direction 0.000000 -0.258819 0.965926
      length 4.938895
      axis 15.0 0.0 0.0 xyz
      dof rx ry rz
   end
   begin
      id 30
      name RightToeBase
      direction 0.000000 0.000000 1.000000
      length 2.952750
      axis 0.0 0.0 0.0 xyz
      dof rx ry rz
   end
:hierarchy
   begin
      root Spine_dum LeftUpLeg_dum RightUpLeg_dum
      Spine_dum Spine
      LeftUpLeg_dum LeftUpLeg
      RightUpLeg_dum RightUpLeg
      Spine Spine_dum1 Spine_dum2 Spine_dum3
      Spine_dum1 Head
      Spine_dum2 LeftShoulder
      Spine_dum3 RightShoulder
      LeftShoulder LeftArm
      LeftArm LeftForeArm
      LeftForeArm LeftHand
      LeftHand LeftHand_dum1 LeftHand_dum2
      LeftHand_dum1 LeftHandThumb1
      RightShoulder RightArm
      RightArm RightForeArm
      RightForeArm RightHand
      RightHand RightHand_dum1 RightHand_dum2
      RightHand_dum1 RightHandThumb1
      LeftUpLeg LeftLeg
      LeftLeg LeftFoot
      LeftFoot LeftToeBase
      RightUpLeg RightLeg
      RightLeg RightFoot
      RightFoot RightToeBase
   end

# File created by Blade
# Date/Time:  Thu Sep 25 17:54:10 2014
# Frame Rate: 120.000 fps
#------------------------------------------------------
:FULLY-SPECIFIED
:DEGREES
170
root -0.562645 32.475884 -5.773594 30.427214 4.118710 0.348132
Spine -38.183646 -3.445889 -1.513974
Head 29.730191 -3.740063 -13.429257
LeftShoulder -9.232249 16.517162 47.297142
LeftArm 127.033042 -54.288004 -100.761957
LeftForeArm -43.062817 0.000000 80.933183
LeftHand -3.506069 0.000000 -25.751905
LeftHandThumb1 -26.253704 0.000000 33.147579
RightShoulder -21.382724 -3.440992 -57.880068
RightArm 122.774422 51.483561 113.276046
RightForeArm 42.194725 -0.000000 122.170384
RightHand 13.815026 -0.000000 -4.831338
RightHandThumb1 -24.326973 -0.000000 -32.862282
LeftUpLeg -24.554148 1.975746 1.642195
LeftLeg -0.136534 -0.000000 0.000000
LeftFoot -5.936966 -1.338089 -1.457364
LeftToeBase 2.466311 -0.000000 -0.000000
RightUpLeg -23.346062 -6.872031 5.455097
RightLeg -1.551331 -0.000000 0.000000
RightFoot -9.986252 -3.452112 10.960377
RightToeBase 15.596691 -0.000000 -0.000000
171
root -0.552716 32.477673 -5.768875 30.397011 3.989694 0.333840
Spine -38.178758 -3.506306 -1.462673
Head 29.960492 -3.732488 -13.493748
LeftShoulder -9.146181 17.521813 47.099858
LeftArm 129.544753 -54.426165 -102.102988
LeftForeArm -43.875149 -0.000000 80.515884
LeftHand -3.361173 -0.000000 -26.075361
LeftHandThumb1 -26.253704 0.000000 33.147579
RightShoulder -21.420425 -3.176512 -58.056642
RightArm 122.397673 51.503372 112.832104
RightForeArm 42.458189 -0.000000 122.257747
RightHand 13.765305 -0.000000 -4.514874
RightHandThumb1 -24.326973 -0.000000 -32.862282
LeftUpLeg -24.497799 2.002350 1.613272
LeftLeg -0.130651 -0.000000 0.000000
LeftFoot -5.940221 -1.258718 -1.446890
LeftToeBase 2.410309 -0.000000 -0.000000
RightUpLeg -23.319477 -6.820654 5.408895
RightLeg -1.542729 -0.000000 0.000000
RightFoot -9.933503 -3.384380 10.978896
RightToeBase 15.519881 -0.000000 -0.000000
172
root -0.542647 32.480499 -5.764832 30.342846 3.848889 0.320805
Spine -38.137626 -3.584188 -1.434282
Head 30.191997 -3.738662 -13.490429
LeftShoulder -9.153496 17.435532 47.337444
LeftArm 129.775185 -54.518818 -101.914585
LeftForeArm -44.566285 -0.000000 80.326933
LeftHand -3.290511 -0.000000 -26.267560
LeftHandThumb1 -26.253704 0.000000 33.147579
RightShoulder -21.445403 -3.026090 -58.042083
RightArm 122.393673 51.474457 112.564486
RightForeArm 42.780978 -0.000000 122.292678
RightHand 13.820696 -0.000000 -4.470791
RightHandThumb1 -24.326973 -0.000000 -32.862282
LeftUpLeg -24.417327 2.047464 1.573456
LeftLeg -0.127344 -0.000000 0.000000
LeftFoot -5.943514 -1.186235 -1.465651
LeftToeBase 2.433067 -0.000000 -0.000000
RightUpLeg -23.271038 -6.753370 5.348718
RightLeg -1.534908 -0.000000 0.000000
RightFoot -9.900576 -3.356594 11.006905
RightToeBase 15.496704 -0.000000 -0.000000
173
root -0.533230 32.481823 -5.761705 30.304651 3.741338 0.292019
Spine -38.122643 -3.677721 -1.340680
Head 30.425237 -3.691283 -13.557573
LeftShoulder -9.099391 18.877232 46.965657
LeftArm 133.061336 -54.680107 -103.754352
LeftForeArm -45.371235 -0.000000 79.795361
LeftHand -3.018954 -0.000000 -26.529101
LeftHandThumb1 -26.253704 0.000000 33.147579
RightShoulder -21.475804 -2.822980 -58.171617
RightArm 122.131009 51.467922 112.200403
RightForeArm 42.983172 -0.000000 122.373771
RightHand 13.833833 0.000000 -4.355219
RightHandThumb1 -24.326973 -0.000000 -32.862282
LeftUpLeg -24.355586 2.059311 1.566563
LeftLeg -0.130823 -0.000000 0.000000
LeftFoot -5.957676 -1.077000 -1.435202
LeftToeBase 2.423502 -0.000000 -0.000000
RightUpLeg -23.242443 -6.692669 5.317282
RightLeg -1.518396 -0.000000 0.000000
RightFoot -9.880630 -3.321989 10.994301
RightToeBase 15.534581 -0.000000 -0.000000
174
root -0.521886 32.482758 -5.756667 30.252540 3.631825 0.280189
Spine -38.088395 -3.756265 -1.269680
Head 30.642108 -3.670790 -13.634634
LeftShoulder -9.064635 19.336228 46.979563
LeftArm 134.352435 -54.860657 -104.355281
LeftForeArm -46.088222 -0.000000 79.562333
LeftHand -2.816094 -0.000000 -26.711131
LeftHandThumb1 -26.253704 0.000000 33.147579
RightShoulder -21.522190 -2.768157 -58.223648
RightArm 122.088357 51.411937 111.951412
RightForeArm 42.963031 -0.000000 122.465058
RightHand 13.715125 -0.000000 -4.276782
RightHandThumb1 -24.326973 -0.000000 -32.862282
LeftUpLeg -24.287206 2.102508 1.528129
LeftLeg -0.110112 -0.000000 0.000000
LeftFoot -5.988646 -1.028970 -1.428398
LeftToeBase 2.458956 -0.000000 -0.000000
RightUpLeg -23.190097 -6.649718 5.268438
RightLeg -1.510859 -0.000000 0.000000
RightFoot -9.865021 -3.288092 10.985323
RightToeBase 15.623556 -0.000000 -0.000000
175
root -0.509646 32.483544 -5.754812 30.287321 3.533683 0.266912
Spine -38.147292 -3.821420 -1.160630
Head 30.861265 -3.602280 -13.749454
LeftShoulder -8.978194 19.914645 46.918513
LeftArm 135.925739 -55.099950 -105.213407
LeftForeArm -46.770711 -0.000000 79.323901
LeftHand -2.587955 -0.000000 -27.092951
LeftHandThumb1 -26.253704 0.000000 33.147579
RightShoulder -21.574453 -2.577339 -58.419820
RightArm 121.786639 51.381776 111.548801
RightForeArm 43.108165 -0.000000 122.534050
RightHand 13.722787 0.000000 -4.270422
RightHandThumb1 -24.326973 -0.000000 -32.862282
LeftUpLeg -24.312950 2.130669 1.492726
LeftLeg -0.091830 -0.000000 0.000000
LeftFoot -6.010474 -0.970193 -1.414893
LeftToeBase 2.417118 -0.000000 -0.000000
RightUpLeg -23.237378 -6.591416 5.229083
RightLeg -1.491097 -0.000000 0.000000
RightFoot -9.850187 -3.262106 11.006925
RightToeBase 15.615137 -0.000000 -0.000000
176
root -0.497860 32.484635 -5.749436 30.225810 3.414914 0.256445
Spine -38.093158 -3.902016 -1.114053
Head 31.081617 -3.638813 -13.800242
LeftShoulder -8.960390 19.897957 47.154867
LeftArm 136.305849 -55.231107 -105.303575
LeftForeArm -47.223863 -0.000000 79.237901
LeftHand -2.495165 0.000000 -27.501813
LeftHandThumb1 -26.253704 0.000000 33.147579
RightShoulder -21.618198 -2.384653 -58.475895
RightArm 121.551307 51.422151 111.140372
RightForeArm 43.178153 -0.000000 122.589249
RightHand 13.776847 -0.000000 -4.332542
RightHandThumb1 -24.326973 -0.000000 -32.862282
LeftUpLeg -24.215295 2.166886 1.453029
LeftLeg -0.107200 -0.000000 0.000000
LeftFoot -6.023151 -0.911405 -1.427316
LeftToeBase 2.466007 -0.000000 -0.000000
RightUpLeg -23.178024 -6.529390 5.169781
RightLeg -1.480490 -0.000000 0.000000
RightFoot -9.836428 -3.263410 10.984034
RightToeBase 15.578178 -0.000000 -0.000000
177
root -0.486462 32.484934 -5.744665 30.191462 3.335453 0.241770
Spine -38.061327 -3.988059 -1.028923
Head 31.263237 -3.665912 -13.904193
LeftShoulder -8.947718 19.855862 47.343505
LeftArm 136.645884 -55.428597 -105.395225
LeftForeArm -47.760871 -0.000000 79.209444
LeftHand -2.277692 0.000000 -28.190057
LeftHandThumb1 -26.253704 0.000000 33.147579
RightShoulder -21.696923 -2.200540 -58.601852
RightArm 121.340129 51.402577 110.818736
RightForeArm 43.460739 0.000000 122.667765
RightHand 13.775321 -0.000000 -4.371967
RightHandThumb1 -24.326973 -0.000000 -32.862282
LeftUpLeg -24.159560 2.181606 1.432589
LeftLeg -0.106813 -0.000000 0.000000
LeftFoot -6.038761 -0.862576 -1.432703
LeftToeBase 2.444705 -0.000000 -0.000000
RightUpLeg -23.143059 -6.490867 5.132247
RightLeg -1.475983 -0.000000 0.000000
RightFoot -9.809303 -3.232055 11.027768
RightToeBase 15.510140 -0.000000 -0.000000
178
root -0.473775 32.485483 -5.741228 30.179278 3.254613 0.235120
Spine -38.059451 -4.052707 -0.935602
Head 31.465950 -3.611104 -13.995117
LeftShoulder -8.868383 19.754701 47.547313
LeftArm 136.870455 -55.692954 -105.484867
LeftForeArm -48.145461 -0.000000 79.290246
LeftHand -2.109171 -0.000000 -28.646759
LeftHandThumb1 -26.253704 0.000000 33.147579
RightShoulder -21.752022 -2.138547 -58.701690
RightArm 121.307087 51.434748 110.576856
RightForeArm 43.421010 -0.000000 122.729441
RightHand 13.830842 0.000000 -4.373008
RightHandThumb1 -24.326973 -0.000000 -32.862282
LeftUpLeg -24.126325 2.185421 1.402546
LeftLeg -0.109284 -0.000000 0.000000
LeftFoot -6.046922 -0.785002 -1.390202
LeftToeBase 2.418830 -0.000000 -0.000000
RightUpLeg -23.132710 -6.458935 5.088370
RightLeg -1.467708 -0.000000 0.000000
RightFoot -9.812828 -3.203189 11.037817
RightToeBase 15.578367 -0.000000 -0.000000
179
root -0.465152 32.487496 -5.738823 30.167808 3.169193 0.189797
Spine -38.049736 -4.110560 -0.838949
Head 31.680898 -3.610269 -14.052582
LeftShoulder -8.815329 19.712293 47.760906
LeftArm 137.227021 -55.984481 -105.667009
LeftForeArm -48.519548 -0.000000 79.400068
LeftHand -1.944278 0.000000 -28.986713
LeftHandThumb1 -26.253704 0.000000 33.147579
RightShoulder -21.832781 -1.944494 -58.823638
RightArm 121.068171 51.467488 110.216677
RightForeArm 43.589867 -0.000000 122.807851
RightHand 13.768931 -0.000000 -4.197979
RightHandThumb1 -24.326973 -0.000000 -32.862282
LeftUpLeg -24.100229 2.240511 1.405084
LeftLeg -0.107243 -0.000000 0.000000
LeftFoot -6.068099 -0.764892 -1.390115
LeftToeBase 2.421133 -0.000000 -0.000000
RightUpLeg -23.017190 -6.117549 4.952382
RightLeg -1.653442 -0.000000 0.000000
RightFoot -9.708720 -3.461734 11.146816
RightToeBase 15.540442 -0.000000 -0.000000
180
root -0.453707 32.488920 -5.734312 30.121740 3.115351 0.172154
Spine -37.999548 -4.189035 -0.740120
Head 31.878934 -3.540021 -14.034929
LeftShoulder -8.810539 20.500777 47.574955
LeftArm 139.345508 -56.069929 -106.996620
LeftForeArm -48.936930 0.000000 79.277814
LeftHand -1.801162 -0.000000 -29.580667
LeftHandThumb1 -26.253704 0.000000 33.147579
RightShoulder -21.932843 -1.735314 -58.955834
RightArm 120.762558 51.463777 109.737845
RightForeArm 43.687317 -0.000000 122.854630
RightHand 13.890532 -0.000000 -4.190872
RightHandThumb1 -24.326973 -0.000000 -32.862282
LeftUpLeg -24.040774 2.262066 1.389581
LeftLeg -0.102940 -0.000000 0.000000
LeftFoot -6.076350 -0.750859 -1.400257
LeftToeBase 2.450416 -0.000000 -0.000000
RightUpLeg -22.960234 -6.065817 4.914210
RightLeg -1.664705 -0.000000 0.000000
RightFoot -9.695749 -3.490920 11.144864
RightToeBase 15.576782 -0.000000 -0.000000
181
root -0.436392 32.488892 -5.728584 30.075275 3.062170 0.205233
Spine -37.952869 -4.270765 -0.688959
Head 32.083053 -3.534513 -14.081122
LeftShoulder -8.823670 21.022005 47.457066
LeftArm 140.904155 -56.116121 -107.935335
LeftForeArm -49.288725 -0.000000 79.208656
LeftHand -1.611924 -0.000000 -30.212458
LeftHandThumb1 -26.253704 0.000000 33.147579
RightShoulder -22.030153 -1.483722 -59.148626
RightArm 120.338296 51.524431 109.201205
RightForeArm 43.756483 -0.000000 122.969159
RightHand 13.678745 -0.000000 -4.136040
RightHandThumb1 -24.326973 -0.000000 -32.862282
LeftUpLeg -23.968166 2.257908 1.313496
LeftLeg -0.113039 -0.000000 0.000000
LeftFoot -6.077575 -0.715821 -1.380473
LeftToeBase 2.468118 -0.000000 -0.000000
RightUpLeg -23.017043 -6.332010 4.956542
RightLeg -1.470948 -0.000000 0.000000
RightFoot -9.723075 -3.199200 11.169462
RightToeBase 15.426132 -0.000000 -0.000000
182
root -0.426491 32.491545 -5.727725 30.090998 3.006143 0.170697
Spine -37.969259 -4.335404 -0.587665
Head 32.304429 -3.540603 -14.073574
LeftShoulder -8.858618 21.989467 47.168962
LeftArm 143.372421 -56.140950 -109.449030
LeftForeArm -49.713075 -0.000000 79.006206
LeftHand -1.405119 0.000000 -30.586104
LeftHandThumb1 -26.253704 0.000000 33.147579
RightShoulder -22.143043 -1.263319 -59.316964
RightArm 119.955980 51.510553 108.710993
RightForeArm 43.862980 -0.000000 123.083983
RightHand 13.714446 0.000000 -4.236290
RightHandThumb1 -24.326973 -0.000000 -32.862282
LeftUpLeg -23.982363 2.299763 1.308801
LeftLeg -0.098306 -0.000000 0.000000
LeftFoot -6.087813 -0.711723 -1.383849
LeftToeBase 2.469810 -0.000000 -0.000000
RightUpLeg -22.991851 -6.142552 4.888137
RightLeg -1.547542 -0.000000 0.000000
RightFoot -9.661658 -3.352219 11.222937
RightToeBase 15.427329 -0.000000 -0.000000
